<svg width="36" height="36" viewBox="0 0 36 36" fill="none" xmlns="http://www.w3.org/2000/svg">
<path d="M33.8725 26.4526L30.25 22.7426C29.4708 22.0019 28.4879 21.5111 27.4276 21.3334C26.3673 21.1556 25.2781 21.299 24.3 21.7451L22.725 20.1701C24.581 17.6902 25.4286 14.5993 25.0972 11.5195C24.7658 8.43982 23.28 5.59997 20.939 3.57168C18.5979 1.54339 15.5754 0.477255 12.4799 0.587903C9.38437 0.698552 6.44569 1.97776 4.25543 4.16803C2.06517 6.35829 0.785954 9.29697 0.675306 12.3925C0.564658 15.488 1.63079 18.5105 3.65908 20.8516C5.68738 23.1926 8.52722 24.6784 11.6069 25.0098C14.6867 25.3412 17.7776 24.4936 20.2575 22.6376L21.815 24.1951C21.3164 25.1744 21.1377 26.2856 21.3041 27.3719C21.4705 28.4582 21.9736 29.4649 22.7425 30.2501L26.4525 33.9601C27.4369 34.9432 28.7712 35.4955 30.1625 35.4955C31.5537 35.4955 32.8881 34.9432 33.8725 33.9601C34.3725 33.4711 34.7698 32.8872 35.0411 32.2426C35.3124 31.598 35.4521 30.9057 35.4521 30.2063C35.4521 29.507 35.3124 28.8147 35.0411 28.17C34.7698 27.5254 34.3725 26.9415 33.8725 26.4526ZM19.0325 19.0326C17.8079 20.2541 16.2488 21.0852 14.552 21.4211C12.8553 21.7569 11.0971 21.5823 9.49954 20.9194C7.90197 20.2565 6.53671 19.135 5.57623 17.6965C4.61574 16.2581 4.10312 14.5672 4.10312 12.8376C4.10312 11.1079 4.61574 9.41709 5.57623 7.97864C6.53671 6.54019 7.90197 5.41867 9.49954 4.75575C11.0971 4.09284 12.8553 3.91827 14.552 4.2541C16.2488 4.58992 17.8079 5.42108 19.0325 6.64258C19.8473 7.45538 20.4938 8.42095 20.935 9.48399C21.3761 10.547 21.6031 11.6867 21.6031 12.8376C21.6031 13.9885 21.3761 15.1281 20.935 16.1912C20.4938 17.2542 19.8473 18.2198 19.0325 19.0326ZM31.405 31.4051C31.2423 31.5691 31.0487 31.6993 30.8355 31.7881C30.6222 31.877 30.3935 31.9227 30.1625 31.9227C29.9315 31.9227 29.7027 31.877 29.4895 31.7881C29.2762 31.6993 29.0827 31.5691 28.92 31.4051L25.21 27.6951C25.046 27.5324 24.9158 27.3388 24.8269 27.1256C24.7381 26.9123 24.6923 26.6836 24.6923 26.4526C24.6923 26.2216 24.7381 25.9928 24.8269 25.7796C24.9158 25.5663 25.046 25.3728 25.21 25.2101C25.3727 25.0461 25.5662 24.9159 25.7795 24.827C25.9927 24.7382 26.2215 24.6924 26.4525 24.6924C26.6835 24.6924 26.9122 24.7382 27.1255 24.827C27.3387 24.9159 27.5323 25.0461 27.695 25.2101L31.405 28.9201C31.569 29.0828 31.6992 29.2763 31.788 29.4896C31.8769 29.7028 31.9226 29.9316 31.9226 30.1626C31.9226 30.3936 31.8769 30.6223 31.788 30.8356C31.6992 31.0488 31.569 31.2424 31.405 31.4051Z" fill="#A9A9A9"/>
</svg>
