<svg width="62" height="58" viewBox="0 0 62 58" fill="none" xmlns="http://www.w3.org/2000/svg">
<path d="M29.7321 42.7291H25.8907L28.5126 38.151C28.7332 37.8036 28.8813 37.4151 28.948 37.009C29.0148 36.6028 28.9987 36.1873 28.9009 35.7875C28.8031 35.3877 28.6255 35.0118 28.3788 34.6825C28.1321 34.3532 27.8214 34.0772 27.4654 33.8712C27.1094 33.6652 26.7155 33.5334 26.3073 33.4838C25.8991 33.4342 25.4852 33.4677 25.0903 33.5824C24.6954 33.6971 24.3277 33.8906 24.0094 34.1512C23.6912 34.4118 23.4288 34.7342 23.2383 35.0989L17.9639 44.2551C17.6971 44.7178 17.5563 45.2424 17.5554 45.7766C17.5546 46.3108 17.6939 46.8358 17.9593 47.2993C18.2247 47.7627 18.607 48.1483 19.0679 48.4175C19.5288 48.6867 20.0522 48.83 20.5858 48.8332H24.4578L21.8663 53.4114C21.462 54.1156 21.3538 54.9518 21.5653 55.7359C21.7768 56.5201 22.2909 57.188 22.9944 57.5927C23.6978 57.9974 24.5331 58.1058 25.3164 57.8941C26.0997 57.6823 26.7668 57.1677 27.1711 56.4634L32.4455 47.3072C32.713 46.8432 32.8539 46.3169 32.8539 45.7812C32.8539 45.2454 32.713 44.7191 32.4455 44.2551C32.1718 43.7802 31.7754 43.3879 31.2979 43.1194C30.8205 42.8509 30.2796 42.716 29.7321 42.7291V42.7291ZM58.4513 15.2604H56.0123C55.6971 13.8909 55.1616 12.5818 54.4269 11.3842L56.1342 9.67509C56.6337 9.09122 56.8947 8.34018 56.865 7.57204C56.8354 6.80391 56.5173 6.07526 55.9743 5.5317C55.4314 4.98814 54.7035 4.66971 53.9362 4.64004C53.1689 4.61037 52.4187 4.87165 51.8355 5.37166L50.1282 7.08082C48.932 6.34531 47.6243 5.80929 46.2563 5.49374V3.05208C46.2563 2.24262 45.9351 1.46631 45.3633 0.893933C44.7916 0.321557 44.0161 0 43.2075 0C42.399 0 41.6235 0.321557 41.0517 0.893933C40.48 1.46631 40.1588 2.24262 40.1588 3.05208V5.49374C38.7908 5.80929 37.4831 6.34531 36.2869 7.08082L34.5796 5.37166C33.9964 4.87165 33.2461 4.61037 32.4788 4.64004C31.7115 4.66971 30.9837 4.98814 30.4407 5.5317C29.8978 6.07526 29.5797 6.80391 29.55 7.57204C29.5204 8.34018 29.7814 9.09122 30.2809 9.67509L31.9881 11.4148C31.7138 11.8726 31.5004 12.3914 31.2565 12.8798C29.6889 12.4368 28.0682 12.2109 26.4394 12.2083C22.0458 12.2058 17.798 13.7865 14.4727 16.6615C11.1475 19.5364 8.96697 23.5135 8.32989 27.8655C6.1705 28.4574 4.25266 29.7163 2.84937 31.4627C1.44608 33.2092 0.628848 35.3542 0.51401 37.5926C0.399173 39.831 0.992579 42.0487 2.20976 43.9298C3.42694 45.811 5.20587 47.2599 7.29332 48.0702C7.67215 48.2504 8.08404 48.3504 8.50324 48.364C8.92244 48.3776 9.33993 48.3044 9.72959 48.149C10.1192 47.9937 10.4727 47.7596 10.7678 47.4612C11.063 47.1629 11.2935 46.8068 11.4449 46.4153C11.5963 46.0237 11.6654 45.6051 11.6478 45.1856C11.6302 44.7661 11.5264 44.3547 11.3427 43.9772C11.1591 43.5997 10.8996 43.2642 10.5806 42.9917C10.2615 42.7192 9.8897 42.5155 9.48841 42.3934C8.50623 41.9945 7.69293 41.2666 7.18755 40.3339C6.68217 39.4012 6.5161 38.3217 6.71773 37.28C6.91936 36.2384 7.47617 35.2991 8.29296 34.6229C9.10975 33.9467 10.1358 33.5756 11.1957 33.5729C12.0043 33.5729 12.7797 33.2513 13.3515 32.6789C13.9233 32.1065 14.2445 31.3302 14.2445 30.5208C14.2575 27.6387 15.2887 24.8542 17.1555 22.6601C19.0223 20.466 21.6043 19.0038 24.4445 18.5323C27.2847 18.0609 30.1999 18.6106 32.6742 20.0841C35.1484 21.5576 37.0222 23.86 37.9637 26.5836C38.138 27.1081 38.4512 27.5753 38.87 27.9355C39.2889 28.2956 39.7975 28.5351 40.3417 28.6285C41.9192 28.9081 43.3559 29.7133 44.4187 30.9133C45.4814 32.1133 46.1078 33.6378 46.196 35.2391C46.2843 36.8404 45.8293 38.4245 44.9049 39.7343C43.9805 41.0442 42.641 42.0027 41.1039 42.4544C40.2953 42.5637 39.5632 42.99 39.0687 43.6397C38.5741 44.2893 38.3576 45.1091 38.4667 45.9185C38.5759 46.728 39.0018 47.4609 39.6507 47.956C40.2997 48.4511 41.1185 48.6678 41.9271 48.5586C42.1997 48.603 42.4776 48.603 42.7502 48.5586C44.5203 48.0665 46.1673 47.2076 47.5844 46.0374C49.0016 44.8672 50.1572 43.4119 50.9765 41.7659C51.7957 40.1198 52.2603 38.3198 52.34 36.4825C52.4197 34.6452 52.1128 32.8116 51.4391 31.1007L51.8355 31.4974C52.4033 32.0613 53.1698 32.3792 53.9696 32.3825C54.3708 32.3849 54.7686 32.3079 55.14 32.156C55.5115 32.0041 55.8493 31.7803 56.1342 31.4974C56.702 30.9256 57.0208 30.152 57.0208 29.3457C57.0208 28.5394 56.702 27.7659 56.1342 27.194L54.4269 25.4849C55.1867 24.2122 55.7229 22.8186 56.0123 21.3645H58.4513C59.2598 21.3645 60.0353 21.043 60.607 20.4706C61.1788 19.8982 61.5 19.1219 61.5 18.3125C61.5 17.503 61.1788 16.7267 60.607 16.1543C60.0353 15.5819 59.2598 15.2604 58.4513 15.2604ZM48.2684 23.3484C47.7294 23.8607 47.1119 24.2832 46.4392 24.5997C45.4498 23.8772 44.3614 23.3015 43.2075 22.8906C41.8068 19.8286 39.6051 17.2028 36.8357 15.2909C37.1755 14.5026 37.6501 13.7796 38.2381 13.1545V13.1545C39.6072 11.8867 41.4035 11.1826 43.2685 11.1826C45.1335 11.1826 46.9298 11.8867 48.2989 13.1545V13.1545C49.6064 14.5041 50.3377 16.3103 50.3377 18.1904C50.3377 20.0705 49.6064 21.8767 48.2989 23.2263L48.2684 23.3484Z" fill="black"/>
</svg>
